<?xml version="1.0" encoding="utf-8"?>
<!-- Generator: Adobe Illustrator 26.0.3, SVG Export Plug-In . SVG Version: 6.00 Build 0)  -->
<svg version="1.1" id="Layer_1" xmlns="http://www.w3.org/2000/svg" xmlns:xlink="http://www.w3.org/1999/xlink" x="0px" y="0px"
	 viewBox="0 0 217 237" style="enable-background:new 0 0 217 237;" xml:space="preserve">
<style type="text/css">
	.st0{fill-rule:evenodd;clip-rule:evenodd;fill:#972DC2;}
	.st1{filter:url(#Adobe_OpacityMaskFilter);}
	.st2{fill-rule:evenodd;clip-rule:evenodd;fill:#FFFFFF;}
	.st3{mask:url(#mask-2_00000101101738919437416060000000840642579990686902_);}
	.st4{fill-rule:evenodd;clip-rule:evenodd;fill:#8A4CA8;}
	.st5{fill:#FFF4EE;}
	.st6{fill:#FFE2CC;}
	.st7{fill:#FFB9A1;}
	.st8{fill:#C66A2C;}
	.st9{fill:#FFB864;}
	.st10{fill:#F78834;}
	.st11{fill:#EA63A1;}
	.st12{fill:#C94B93;}
	.st13{fill:#440829;}
</style>
<desc>Created with Sketch.</desc>
<g id="Website">
	<g id="mf-avatar" transform="translate(-10.000000, -15.000000)">
		<g id="Circle" transform="translate(10.800000, 36.000000)">
			<g id="Circle-Background">
				<circle id="path-1_00000088820493021892237480000006393179120834905244_" class="st0" cx="109" cy="102.4" r="108"/>
			</g>
			<defs>
				<filter id="Adobe_OpacityMaskFilter" filterUnits="userSpaceOnUse" x="1" y="-5.6" width="216.4" height="216">
					<feColorMatrix  type="matrix" values="1 0 0 0 0  0 1 0 0 0  0 0 1 0 0  0 0 0 1 0"/>
				</filter>
			</defs>
			
				<mask maskUnits="userSpaceOnUse" x="1" y="-5.6" width="216.4" height="216" id="mask-2_00000101101738919437416060000000840642579990686902_">
				<g class="st1">
					<circle id="path-1_00000132770035621539379520000008885280998563736233_" class="st2" cx="109" cy="102.4" r="108"/>
				</g>
			</mask>
			<g id="_xD83D__xDD8D_-Circle-Color" class="st3">
				<rect id="_xD83D__xDD8D_Color" x="1" y="-5.6" class="st4" width="216.4" height="216"/>
			</g>
		</g>
		<g id="Mask">
		</g>
		<g>
			<path class="st5" d="M129.3,96.6c-2.9,2.1-4.3,5.4-5.1,8.8c-0.2,7.9,4.7,15.9,13.6,15.1c9.3-0.7,14.5-8.7,13-17.4
				c-0.7-1.4-1.5-2.7-2.6-3.9C143.7,94.1,135.1,93,129.3,96.6z M134.8,110.9c-2.5,1.9-4.4-2.5-3.8-4.6c0.3-1.6,2.2-1.8,3.2-0.7
				C135.3,107,135.9,109.4,134.8,110.9z"/>
			<path class="st6" d="M82.1,104.5c0.3-1.4,1.1-3,1.5-3.9c6.2-11.8,27-11.8,29.6,2.7c0,0.4,0.2,1.2,0.3,2.1
				c0.1-0.1,0.2-0.1,0.4-0.2c2.4-0.9,6.1-1.3,8.4,0.2c0.1-0.8,0.3-1.6,0.3-2c2.6-14.5,23.3-14.5,29.6-2.7c0.4,1,1.4,2.8,1.5,4.3
				c0.1,0,0.2,0.1,0.4,0.1c0.9,0.2,1.9,0.4,2.8,0.7c-0.1-6.8-1.5-13.5-4.5-19.6C148,78,142,70.4,133.6,66.3
				c-5.8-2.6-12.3-3.5-18.6-3.2c-4.1,0.3-8.1,2-11.6,3.7c-13.2,6.7-23,20.2-24.4,35c-0.2,1.4-0.3,2.8-0.3,4.2c1-0.5,2.1-1,2.9-1.4
				C81.8,104.5,81.9,104.5,82.1,104.5z M139.2,79.7c1.9,1.4,3.3,3.5,3.6,5.8c0,0.5,0.1,1.2-0.4,1.5c-0.3,0.1-0.6,0.1-0.8-0.2
				c-0.3,0.1-0.6,0-0.8-0.2c-1.6-0.8-3.3-1.7-5-2.4c-1.5-0.8-4.5-0.7-4.6-3C131.6,77.4,136.9,77.6,139.2,79.7z M92.9,85.5
				c0.3-2.3,1.7-4.4,3.6-5.8c2.2-2,7.6-2.2,8,1.5c-0.1,2.3-3,2.2-4.6,3c-1.7,0.7-3.3,1.6-5,2.4c-0.3,0.1-0.6,0.2-0.8,0.2
				c-0.2,0.2-0.5,0.3-0.8,0.2C92.8,86.7,92.8,86,92.9,85.5z"/>
			<path class="st7" d="M121.9,123.3c-2.1,1.1-4.5,1.3-6.8,0.6c1,0.9,2.1,2.1,3.5,2C120.1,125.8,121.1,124.5,121.9,123.3z"/>
			<path class="st8" d="M99.5,80.3c-2.6,0.2-4.8,2.3-5.2,4.8c2.4-1.8,5.3-2.9,8.1-3.8C102.1,80.2,100.4,80.2,99.5,80.3z"/>
			<path class="st9" d="M116.2,204.9c-0.1,0-0.1,0-0.2,0c-0.3,0-0.6-0.1-0.8-0.1c-1.6-0.1-3.2-0.3-4.8-0.5c-2.1-0.2-4.1-0.4-6.2-0.6
				c-5.1-1.1-10.1-2.5-15-4.2c-9.6-3.5-19.3-7.7-27.1-14.5c-4.7,5.4-8.3,11.7-11.1,18.2c-1.1,2.7-2.2,5.3-3,8.1c0,0.1,0,0.1-0.1,0.2
				c12.3,9.5,27.9,13.1,43,15.3c8.5,1.2,17.1,2,25.7,2.2c0.1-2.9,0.1-5.8,0.1-8.6c0.1-4.1,0.1-8.2,0.2-12.3c0.1-1,0-2.1,0.1-3.1
				c-0.1,0-0.1,0-0.2,0C116.7,205,116.4,204.9,116.2,204.9z"/>
			<path class="st6" d="M113.2,159.4c2.6,0.5,5.3,0.6,8.1,0.2c0.7-0.2,1.5-0.4,2.2-0.5c7.4-1.9,14.3-5.7,19.3-11.4
				c5.6-6.6,7.2-15.2,9.7-23.1c1.3-4.6,2.8-9.2,4.1-13.8c0.1-0.7,0.2-1.4,0.2-2c0-0.1,0-0.2,0-0.3c-0.3,0-0.6-0.1-0.9-0.2
				c-0.7-0.3-1.8-0.8-2.5-1.1c0.1,8-7,15.3-15.2,15.7c-8.4,1.1-16.1-6.5-16-14.6c0,0,0,0-0.1,0c0,0-0.1,0-0.2,0
				c-0.4-0.1-0.8-0.3-1.1-0.6c-2.1-1.5-5.8-1.5-7.4-0.1c0.6,8.4-7.4,16.4-16,15.3c-8.1-0.4-15.2-7.7-15.2-15.6
				c-0.1,0-0.2,0.1-0.2,0.1c-1,0.5-1.9,1-2.9,1.5c1.4,5.4,3.1,10.8,4.6,16.3c2.1,6.6,3.9,13.3,7.8,19
				C96.5,151.6,104.3,157.7,113.2,159.4z M113.3,122.2c0.7,0,1.4,0.5,2.1,0.6c1.4,0.4,2.7,0.2,4.1-0.1c1.3-0.2,2.4-1.1,3.7-1.3
				c1.2,0.5,0.4,2.2-0.1,2.9c-1,1.9-3.1,2.9-5.2,2.4c-1.6-0.4-2.9-1.6-3.9-2.8c-0.1-0.2-0.3-0.4-0.3-0.7
				C113.3,123.1,112.8,122.5,113.3,122.2z M109,136.8c0.7-0.2,1,0.6,0.7,1.1c0.3,0.3,0.6,0.7,0.9,1c1.4,1.6,3.2,2.7,5.3,3
				c4.3,0.5,8.6-2,10.7-5.7c0-0.1,0.1-0.1,0.1-0.2c-0.4-0.4-0.6-0.8,0-1.2c1.1-0.3,1.8,0.9,2.3,1.7c0.3,0.5-0.3,1-0.7,0.7
				c-0.1-0.1-0.2-0.2-0.4-0.3c-0.1,0.3-0.3,0.5-0.4,0.7c-2.5,4-7.2,6.8-12,5.8c-2.5-0.4-5-1.7-6.5-3.9c-0.1-0.1-0.2-0.3-0.3-0.4
				c-0.3,0.3-0.6,0.5-1,0.3C107,138.6,108.3,137,109,136.8z"/>
			<path class="st10" d="M66.4,184.5c-0.4-0.4-1.2-1.1-2.1-2c-0.1,0.1-0.2,0.2-0.3,0.2c-0.3,0.3-0.6,0.6-0.9,1
				c7.4,7.2,16.8,11.6,26.6,14.7C80.9,194.9,72.6,190,66.4,184.5z"/>
			<path class="st8" d="M136.2,80.3c-1-0.1-2.7-0.1-2.9,1c2.8,0.9,5.7,2,8.1,3.8C141,82.6,138.8,80.5,136.2,80.3z"/>
			<path class="st5" d="M106.4,96.6c-5.9-3.6-14.4-2.5-19,2.7c-1,1.2-1.9,2.5-2.6,3.9c-1.4,8.7,3.7,16.6,13,17.4
				c8.9,0.8,13.8-7.2,13.6-15.1C110.7,102,109.3,98.7,106.4,96.6z M100.8,110.9c-1-1.5-0.5-3.9,0.6-5.3c1-1.2,2.8-0.9,3.2,0.7
				C105.2,108.4,103.4,112.8,100.8,110.9z"/>
			<path class="st11" d="M153.7,196.5c-4.1,2-8.4,3.7-12.7,5.1c0,4-0.3,7.9-0.6,11.9c-0.1,2.1-0.6,4.2-1.2,6.2
				c-0.2,2.4-0.8,4.8-2.3,4.2c-0.7-0.6-0.7-1.7-0.9-2.6c-0.9-4.4-0.7-9-0.5-13.5c0.1-0.7,0.1-3.2,0.4-4.9c-5.4,1.3-11,2-16.6,2.1
				c0,0.5,0,1,0,1.3c0,3.1-0.1,6.2-0.1,9.3c-0.1,4-0.1,8-0.3,11.9c0,0.4,0,1-0.1,1.6c6.4,0.1,12.7-0.1,19.1-0.7c5-0.4,10-1.2,15-2.3
				c0.2-2.4,0.6-4.7,0.7-7.1C154,211.5,153.5,203.9,153.7,196.5z"/>
			<path class="st11" d="M157.7,164.8c-0.8-0.6-0.3-1.4-0.3-2.2c-0.1-2-0.6-4-1.6-5.7c-0.1-0.2-0.2-0.3-0.3-0.5
				c-0.9,1.3-1.8,2.5-2.6,3.8c-0.9,1-1.6,3.3-3.2,2.5c-0.6-0.4-0.7-1.1-0.4-1.7c1.8-2.7,3.6-5.3,5.4-7.9c1.3-1.9,2.5-3.8,3.7-5.8
				c1-1.9,2-3.8,2.7-5.8c0.7-2,1.1-4.1,1.1-6.4c0-1.2,0-2.4,0-3.6c0.2-0.8,0.7-1.5,1-2.3c4.7-11.8,9.6-23.9,9.6-36.7
				c-0.4-8-1.2-15.9-4.2-23.4c-1.8-3.7-3.9-7.3-6.4-10.6c-5.4-7.2-12.5-13-21.1-16c-6.5-2.7-13.3-4.3-20.3-4.4c-0.1,0-0.3,0-0.5-0.1
				c-0.3,0-0.5,0-0.8,0c-0.4,0-0.9,0-1.4,0c-0.3,0-0.7,0-1,0c-4.7,0.1-9.3,1.1-13.7,2.4c-9.9,3-19.7,7.7-26.5,15.6
				c-1.9,2.3-3.5,4.7-5,7.3C64.2,77,63.1,94,66.2,109.1c1.3,6.1,3.7,11.9,6,17.7c0.6,1.7,1.2,3.4,1.8,5.1c0.7,0,0.9,1.2,0.8,2
				c-1.7,9.3,4.7,17.3,10.8,23.5c0.5,0.5,0.9,1,1.3,1.5c0.8,1.1-0.7,2.6-1.7,1.7c-1.2-1.3-2.6-2.7-3.9-4.2c-0.3,0.3-0.6,0.7-0.7,1
				c-1,1.8-1.6,3.9-1.8,5.9c-0.1,0.5-0.2,1-0.5,1.4c-0.4,0.7-1.4,0.8-2.2,1.1c-1.2,0.3-2.5,0.7-3.6,1.1c-0.9,0.3-1.9,0.7-2.8,1.3
				c-4.1,2.4-6.3,7.8-4.4,12.2c0.3,0.3,0.5,0.6,0.8,0.8c2.9,2.8,5.9,5.2,9.2,7.3c2.7,1.6,5.4,3.2,8.3,4.6
				c10.2,5.1,21.7,8.8,32.8,9.5c11.7,0.4,23.3-2.5,34-7.1c4.7-2.2,9.1-5,13.3-8c2-1.5,4-3,5.9-4.5c0.2-0.3,0.4-0.7,0.6-1
				c1.2-2.3,0.8-5-0.2-7.3C168,169.2,162.3,167.4,157.7,164.8z M78.2,136.8c-0.4-0.6-1.8-3.1-0.7-2.7c1.4,1.2,2.6,2.6,3.9,3.9
				c2.6,2.5,5.4,5.1,8.2,7.7c-2.5-3.7-4.4-7.7-5.6-11.8C79.9,121,75.6,108,73.8,94.6c-0.6-5.2,0-10.5,0.9-15.7
				c0.1-0.8,0.7-4,1.5-6.4c0.6-1.9,1.3-3.2,1.9-2.5c0,0,0,0.1,0,0.1c0.3,1.8-0.5,3.7-0.7,5.5c-0.9,5.6-1.7,11.4-1.4,17
				c0.2,2.6,0.6,5.1,1,7.6c0.3-2.3,0.8-4.6,1.3-6.8c3.8-13.9,15-25.5,28.3-30.6c0.4-0.2,0.8-0.3,1.2-0.5c3.3-1.2,6.9-1.7,10.4-1.6
				c4.2,0.1,8.4,0.8,12.4,2c11.9,3.8,20.2,14.4,25.1,25.5c1.6,4.1,2.7,8.6,3.2,13c0.6-3,1-6.1,1.3-9.2c0.5-6.4-0.6-12.8-1.9-19
				c0-0.1,0-0.2-0.1-0.3c0-0.9-0.8-3.4,0.3-3.2c1.1,1.1,1.6,2.6,2,4.1c0.2,0.9,0.4,1.9,0.7,2.8c1.3,5,1.7,10.2,1.4,15.3
				c-0.8,12.6-5.2,24.6-8.6,36.7c-1.8,5.9-3.4,12.2-6.6,17.5c3.9-3.8,7.6-7.9,11.3-11.9c0.2-0.2,0.3-0.6,0.7-0.5
				c0.2,0,0.3,0.3,0.2,0.5c-0.2,0.5-0.5,1-0.7,1.4c-4,6.9-10.1,12.3-16.2,17.3c-5.4,4.1-11.2,8.2-17.9,9.3c-3.1,0.8-6.3,1-9.5,0.8
				c-0.6,0.1-2.7-0.4-4.7-1c-3.6-1-7-2.6-10.1-4.7c-3.3-1.9-6.5-4.3-9.3-6.8C86.6,145.8,81.8,141.8,78.2,136.8z M129.2,186.5
				c-15.3-1.5-29.8-9-38.7-21.7c-0.3-0.3,0.1-0.8,0.4-0.3c3.3,3,6.9,5.8,10.4,8.5c0.2,0.2,0.5,0.4,0.7,0.5
				c5.3,2.3,11.1,3.2,16.8,2.9c5.8-0.4,11.6-2.2,16.8-4.7c1.8-0.9,3.6-1.7,5.5-2.5c0.4-0.2,0.8,0,1,0.3c0.2,0.4,0.1,0.9-0.3,1.1
				c-0.4,0.2-0.7,0.5-1.1,0.7c-4.1,6.4-11.8,10.5-19.4,10.5c-0.9,0-1.9-0.1-2.8-0.1c8.2,2.5,17,3.1,25.4,2c4.5-1.1,8.8-2.6,13-4.5
				c0.3-0.1,0.6,0.3,0.3,0.5C149.1,185.5,139,187.9,129.2,186.5z"/>
			<path class="st12" d="M137.8,221.8c0.2-0.7,0.4-1.4,0.6-2.1c0.1-0.8,0.2-1.6,0.3-2.4c0-0.5,0.1-1,0.1-1.5c0-0.1,0.1-0.2,0.1-0.2
				c0.6-4.6,1.2-9.2,1.3-13.9c-0.9,0.3-1.7,0.5-2.6,0.7c0.2,1.2,0,2.6,0,3.8C137.7,211.4,137.7,216.6,137.8,221.8z"/>
			<path class="st9" d="M173.8,185.6c-0.5-0.7-1.2-1.2-1.7-1.9c-1.1,1.3-3.5,2.9-4.1,3.6c-3.8,3.1-7.8,5.8-12.1,8.1
				c0,0.2,0.1,0.4,0.1,0.6c0,3.6,0.2,7.3,0.2,10.9c0.2,5.9,0,11.7-0.8,17.6c-0.1,0.3-0.1,0.7-0.1,1.1c9.4-2.3,18.6-5.7,27.2-10.1
				c2.1-1.1,4.2-2.1,6.2-3.3c-2.9-6.6-5.4-13.6-9.5-19.6C177.4,190.1,175.6,187.7,173.8,185.6z"/>
			<path class="st12" d="M130.4,179.3c3.1-1.5,5.9-3.7,8.2-6.3c-8.2,4.6-18,7-27.4,5.6c-0.5-0.1-1.1-0.2-1.7-0.3
				c2.4,1.2,4.8,2.2,7.3,3.1c1.1,0,2.1,0.1,3.2,0.1C123.6,181.6,127.1,180.7,130.4,179.3z"/>
			<path class="st13" d="M100.5,156.7c3.1,2.1,6.5,3.7,10.1,4.7c2,0.6,4.1,1.1,4.6,1c3.2,0.2,6.4,0.1,9.5-0.8
				c6.7-1.1,12.6-5.2,17.9-9.3c6.1-5,12.3-10.4,16.2-17.3c0.2-0.5,0.5-0.9,0.7-1.4c0.1-0.2,0-0.4-0.2-0.5c-0.3-0.1-0.4,0.3-0.7,0.5
				c-3.7,4-7.4,8.1-11.3,11.9c3.2-5.3,4.9-11.6,6.6-17.5c3.4-12.1,7.8-24.1,8.6-36.7c0.3-5.1-0.1-10.3-1.4-15.3
				c-0.6-2.3-0.9-5.1-2.7-6.8c-1.1-0.2-0.3,2.3-0.3,3.3c1.3,6.4,2.4,12.8,1.9,19.3c-0.2,3.1-0.7,6.2-1.3,9.2
				c-0.4-4.5-1.6-8.9-3.2-13c-4.9-11-13.3-21.6-25.1-25.4c-7.8-2.2-16.4-3.1-24,0.1c-13.3,5.1-24.5,16.7-28.3,30.6
				c-0.5,2.2-1,4.5-1.3,6.8c-0.5-2.5-0.8-5-1-7.6c-0.3-5.6,0.4-11.4,1.4-17c0.2-1.8,1-3.7,0.6-5.6c-1.5-1.7-3.2,7.5-3.4,8.9
				c-0.9,5.2-1.5,10.4-0.9,15.7c1.8,13.4,6,26.4,10.2,39.3c1.2,4.1,3.2,8.2,5.6,11.8c-2.8-2.6-5.6-5.3-8.2-7.7
				c-1.3-1.2-2.5-2.7-3.9-3.9c-1.1-0.4,0.3,2.1,0.7,2.7c3.6,5,8.3,9,12.9,13.1C94,152.4,97.1,154.7,100.5,156.7z M79,101.8
				c1.4-14.8,11.2-28.2,24.4-35c3.5-1.7,7.5-3.4,11.6-3.7c6.3-0.3,12.8,0.6,18.6,3.2C142,70.4,148,78,152.3,86.2
				c3,6.1,4.4,12.8,4.5,19.6c-0.9-0.3-1.9-0.5-2.8-0.7c-0.1,0-0.2-0.1-0.4-0.1c-0.2-1.5-1.1-3.4-1.5-4.3c-6.2-11.8-27-11.8-29.6,2.7
				c0,0.4-0.2,1.2-0.3,2c-2.3-1.5-6.1-1.1-8.4-0.2c-0.1,0-0.2,0.1-0.4,0.2c-0.1-0.8-0.3-1.6-0.3-2.1c-2.6-14.5-23.3-14.5-29.6-2.7
				c-0.4,0.9-1.2,2.5-1.5,3.9c-0.2,0-0.4,0-0.5,0.1c-0.8,0.4-1.9,0.9-2.9,1.4C78.7,104.6,78.8,103.2,79,101.8z M137.8,120.5
				c-8.9,0.8-13.8-7.2-13.6-15.1c0.8-3.4,2.1-6.8,5.1-8.8c5.9-3.6,14.4-2.5,19,2.7c1,1.2,1.9,2.5,2.6,3.9
				C152.3,111.9,147.2,119.8,137.8,120.5z M111.5,105.4c0.2,7.9-4.7,15.9-13.6,15.1c-9.3-0.7-14.5-8.7-13-17.4
				c0.7-1.4,1.5-2.7,2.6-3.9c4.6-5.2,13.2-6.3,19-2.7C109.3,98.7,110.7,102,111.5,105.4z M83.8,125.2c-1.5-5.4-3.2-10.8-4.6-16.3
				c1-0.5,1.9-1,2.9-1.5c0.1,0,0.2-0.1,0.2-0.1c0,7.9,7.1,15.2,15.2,15.6c8.6,1.1,16.6-6.9,16-15.3c1.7-1.4,5.3-1.4,7.4,0.1
				c0.3,0.2,0.7,0.4,1.1,0.6c0.1,0,0.1,0,0.2,0c0,0,0,0,0.1,0c-0.1,8.2,7.6,15.7,16,14.6c8.1-0.4,15.2-7.8,15.2-15.7
				c0.7,0.3,1.8,0.8,2.5,1.1c0.3,0.1,0.6,0.2,0.9,0.2c0,0.1,0,0.2,0,0.3c0,0.6-0.1,1.3-0.2,2c-1.3,4.6-2.7,9.2-4.1,13.8
				c-2.6,8-4.1,16.6-9.7,23.1c-5,5.8-12,9.5-19.3,11.4c-0.7,0.1-1.5,0.3-2.2,0.5c-2.8,0.4-5.5,0.3-8.1-0.2
				c-8.8-1.7-16.6-7.8-21.6-15.2C87.7,138.5,85.9,131.8,83.8,125.2z"/>
			<path class="st13" d="M113.6,123.3c0,0.2,0.1,0.5,0.3,0.7c1,1.2,2.3,2.5,3.9,2.8c2.1,0.5,4.2-0.5,5.2-2.4
				c0.5-0.8,1.3-2.4,0.1-2.9c-1.3,0.1-2.4,1.1-3.7,1.3c-1.4,0.3-2.7,0.5-4.1,0.1c-0.7-0.1-1.3-0.7-2.1-0.6
				C112.8,122.5,113.3,123.1,113.6,123.3z M121.9,123.3c-0.7,1.2-1.8,2.4-3.3,2.6c-1.5,0.1-2.5-1.1-3.5-2
				C117.3,124.6,119.8,124.4,121.9,123.3z"/>
			<path class="st13" d="M108.8,139c0.1,0.2,0.2,0.3,0.3,0.4c1.4,2.2,3.9,3.5,6.5,3.9c4.8,1,9.5-1.7,12-5.8c0.1-0.2,0.3-0.5,0.4-0.7
				c0.2,0.1,0.3,0.2,0.4,0.3c0.4,0.3,1-0.3,0.7-0.7c-0.5-0.8-1.2-1.9-2.3-1.7c-0.6,0.4-0.4,0.8,0,1.2c0,0.1-0.1,0.1-0.1,0.2
				c-2.1,3.7-6.4,6.3-10.7,5.7c-2.1-0.3-3.9-1.5-5.3-3c-0.3-0.3-0.6-0.7-0.9-1c0.3-0.5,0-1.3-0.7-1.1c-0.7,0.3-2.1,1.8-1.3,2.5
				C108.2,139.5,108.5,139.3,108.8,139z"/>
			<path class="st13" d="M93.3,86.9c0.3,0.1,0.6,0.1,0.8-0.2c0.3,0.1,0.6,0,0.8-0.2c1.6-0.8,3.3-1.7,5-2.4c1.5-0.8,4.5-0.7,4.6-3
				c-0.4-3.8-5.7-3.5-8-1.5c-1.9,1.4-3.3,3.5-3.6,5.8C92.8,86,92.8,86.7,93.3,86.9z M99.5,80.3c1-0.1,2.7-0.1,2.9,1
				c-2.8,0.9-5.7,2-8.1,3.8C94.7,82.6,96.9,80.5,99.5,80.3z"/>
			<path class="st13" d="M101.4,105.7c-1.1,1.4-1.6,3.7-0.6,5.3c2.5,1.9,4.4-2.5,3.8-4.6C104.3,104.7,102.4,104.5,101.4,105.7z"/>
			<path class="st13" d="M135.8,84.2c1.7,0.7,3.3,1.6,5,2.4c0.3,0.1,0.6,0.2,0.8,0.2c0.2,0.2,0.5,0.3,0.8,0.2c0.5-0.3,0.5-1,0.4-1.5
				c-0.3-2.3-1.7-4.4-3.6-5.8c-2.2-2-7.6-2.2-8,1.5C131.3,83.5,134.2,83.4,135.8,84.2z M136.2,80.3c2.6,0.2,4.8,2.3,5.2,4.8
				c-2.4-1.8-5.3-2.9-8.1-3.8C133.5,80.2,135.2,80.2,136.2,80.3z"/>
			<path class="st13" d="M131.1,106.3c-0.6,2.1,1.2,6.5,3.8,4.6c1-1.5,0.5-3.9-0.6-5.3C133.3,104.5,131.4,104.7,131.1,106.3z"/>
			<path class="st13" d="M157,179.4c-4.2,1.9-8.5,3.4-12.9,4.5c-8.5,1.1-17.2,0.5-25.4-2c0.9,0,1.9,0.1,2.8,0.1
				c7.6,0,15.3-4.2,19.4-10.5c0.4-0.3,0.7-0.5,1.1-0.7c0.4-0.2,0.5-0.7,0.3-1.1c-0.2-0.3-0.6-0.5-1-0.3c-1.8,0.8-3.7,1.6-5.5,2.5
				c-5.2,2.5-11,4.2-16.8,4.6c-5.7,0.4-11.6-0.6-16.8-2.9c-0.2-0.2-0.5-0.4-0.7-0.5c-3.5-2.8-7.1-5.5-10.4-8.5
				c-0.3-0.5-0.7,0-0.4,0.3c8.9,12.7,23.4,20.1,38.7,21.7c9.8,1.4,19.9-1,28.1-6.6C157.6,179.7,157.3,179.2,157,179.4z M109.5,178.3
				c0.6,0.1,1.1,0.2,1.7,0.3c9.4,1.3,19.2-1,27.4-5.6c-2.3,2.6-5.1,4.8-8.2,6.3c-3.2,1.5-6.8,2.3-10.3,2.2c-1.1,0-2.1-0.1-3.2-0.1
				C114.3,180.5,111.8,179.5,109.5,178.3z"/>
			<path class="st13" d="M190.6,211.5c-0.7-3.1-2.3-6-3.5-8.9c-1.7-3.8-3.6-7.6-5.9-11.2c-0.7-1-5.5-8.4-8.1-9.9
				c0.3-0.8,0.4-1.7,0.4-2.5c0.2-8.6-7.5-13.4-14.6-16.4c0.3-2.8-0.2-6.2-2.2-8.3c2.1-3.2,4.2-6.4,5.7-9.9c1.6-3.6,1.9-7.5,1.6-11.4
				c0.6-1.8,1.6-3.5,2.2-5.3c4.3-11.2,8.8-22.9,8.8-35.1c-0.3-7.7-1.2-15.5-3.6-22.8c-5.1-12.4-14.5-23.6-27.2-28.9
				c-6.9-3.1-14.4-5.2-22-5.5c0,0-0.1,0-0.1,0c-6.1-0.8-12.4,0.3-18.2,1.9c-11.9,3.4-23.9,9.2-31.2,19.5C63,70.9,60.7,88.6,63,105
				c1.1,7.8,3.9,15.3,6.8,22.6c0.9,2.4,1.7,4.8,2.6,7.3c-1.6,6.9,2.6,14,7.4,19.9c-0.1,0.1-0.2,0.2-0.3,0.3c-2.2,2.2-2.1,5.2-2.5,8
				c-4,1-8.5,2.1-11.4,5.3c-2.5,2.9-4.3,7.6-3,11.4c0,0.3,0.2,0.7,0.4,1.1c-1.6,1.2-2.9,2.7-4.2,4.2c-4.9,6.2-8.6,13.2-11.3,20.6
				c-0.2,1-1.5,3.6-1.6,5.2c-0.1,0.1-0.2,0.2-0.2,0.4c-0.2,0.8,0.4,1.5,1,2.1c1.1,1,2.3,1.9,3.5,2.7c18.8,11.9,42.5,13.9,64.3,15.3
				c21.1,0.9,42.6-1.7,62.1-10.4c4.9-2.1,9.6-4.5,14.1-7.4C191.6,212.9,191.3,211.9,190.6,211.5z M64.1,182.8
				c0.1-0.1,0.2-0.2,0.3-0.2c0.8,0.9,1.7,1.6,2.1,2c6.1,5.5,14.5,10.4,23.4,14c-9.8-3.1-19.2-7.5-26.6-14.7
				C63.5,183.4,63.8,183.1,64.1,182.8z M117,208.1c-0.1,4.1-0.1,8.2-0.2,12.3c0,2.9-0.1,5.8-0.1,8.6c-8.6-0.2-17.2-1-25.7-2.2
				c-15.1-2.2-30.7-5.8-43-15.3c0-0.1,0-0.1,0.1-0.2c0.8-2.7,1.9-5.4,3-8.1c2.8-6.6,6.4-12.8,11.1-18.2c7.8,6.8,17.5,11,27.1,14.5
				c4.9,1.7,9.9,3.1,15,4.2c2.1,0.2,4.1,0.4,6.2,0.6c1.6,0.2,3.2,0.4,4.8,0.5c0.3,0,0.6,0.1,0.8,0.1c0.1,0,0.1,0,0.2,0
				c0.2,0,0.5,0,0.7,0.1c0.1,0,0.1,0,0.2,0C117,206,117.1,207.1,117,208.1z M116.5,202.5c-14.2-0.9-29.1-6.7-41.1-14.1
				c-3.3-2.2-6.4-4.6-9.2-7.3c-0.3-0.2-0.5-0.5-0.8-0.8c-1.9-4.4,0.4-9.8,4.4-12.2c2-1.2,4.2-1.7,6.4-2.3c0.7-0.2,1.7-0.3,2.2-1.1
				c0.3-0.4,0.4-0.9,0.5-1.4c0.2-2.1,0.7-4.1,1.8-5.9c0.1-0.4,0.4-0.7,0.7-1c1.3,1.5,2.7,3,3.9,4.2c1.1,0.9,2.6-0.6,1.7-1.7
				c-0.4-0.5-0.9-1-1.3-1.5c-6.1-6.3-12.5-14.2-10.8-23.5c0.2-0.8-0.1-2-0.8-2c-0.6-1.7-1.2-3.4-1.8-5.1c-2.3-5.8-4.6-11.6-5.9-17.7
				c-3.8-18-1.5-38.5,10.5-53.2c6.8-7.9,16.6-12.6,26.5-15.6c4.5-1.3,9-2.3,13.7-2.4c0.3,0,0.7,0,1,0c0.5,0,1,0,1.4,0
				c0.3,0,0.5,0,0.8,0c0.2,0,0.4,0,0.5,0.1c7,0.2,13.8,1.8,20.3,4.4c12.5,4.4,21.9,14.7,27.5,26.5c3,7.4,3.8,15.4,4.2,23.4
				c0.1,12.8-4.8,25-9.6,36.7c-0.3,0.8-0.7,1.5-1,2.3c-0.1,1.2,0,2.4,0,3.6c0.1,4.4-1.6,8.3-3.7,12.2c-2.7,4.8-6,9.2-9.1,13.8
				c-0.4,0.6-0.2,1.3,0.4,1.7c1.6,0.8,2.3-1.5,3.2-2.5c0.9-1.3,1.7-2.5,2.6-3.8c1.1,1.8,1.8,4,1.9,6.2c0,0.8-0.5,1.6,0.3,2.2
				c4.6,2.6,10.4,4.4,12.5,9.7c1,2.3,1.4,5,0.2,7.3c-0.2,0.3-0.4,0.6-0.6,1c-6,4.8-12.3,9.4-19.3,12.6
				C139.8,200,128.2,202.9,116.5,202.5z M137.7,202.4c0.9-0.2,1.8-0.5,2.6-0.7c-0.2,4.7-0.7,9.3-1.3,13.9c-0.1,0-0.1,0.1-0.1,0.2
				c0,0.5-0.1,1-0.1,1.5c-0.1,0.8-0.2,1.6-0.3,2.4c-0.2,0.7-0.4,1.4-0.6,2.1c-0.2-5.2-0.1-10.4-0.1-15.6
				C137.7,205,138,203.6,137.7,202.4z M153.6,218.9c-0.1,2.4-0.4,4.8-0.7,7.1c-4.9,1.1-9.9,1.9-15,2.3c-6.3,0.6-12.7,0.8-19.1,0.7
				c0-0.6,0-1.2,0.1-1.6c0.1-4,0.2-7.9,0.3-11.9c0-3.1,0.1-6.2,0.1-9.3c0-0.3,0-0.8,0-1.3c5.6-0.1,11.1-0.8,16.6-2.1
				c-0.4,1.7-0.3,4.3-0.4,4.9c-0.2,4.5-0.4,9,0.5,13.5c0.1,0.9,0.2,2,0.9,2.6c1.5,0.5,2.1-1.9,2.3-4.2c0.6-2,1.1-4.1,1.2-6.2
				c0.3-4,0.5-7.9,0.6-11.9c4.4-1.3,8.6-3,12.7-5.1C153.5,203.9,154,211.5,153.6,218.9z M182.3,215.5c-8.6,4.4-17.8,7.8-27.2,10.1
				c0-0.4,0.1-0.8,0.1-1.1c0.9-5.8,1-11.7,0.8-17.6c0-3.6-0.2-7.3-0.2-10.9c0-0.2,0-0.4-0.1-0.6c4.3-2.3,8.4-5,12.1-8.1
				c0.6-0.7,3.1-2.2,4.1-3.6c0.5,0.7,1.3,1.2,1.7,1.9c1.8,2.1,3.6,4.6,5.2,6.9c4,6,6.5,13,9.5,19.6
				C186.5,213.4,184.4,214.4,182.3,215.5z"/>
			<path class="st12" d="M77.5,75.6c0.2-1.8,1-3.7,0.7-5.5c0,0,0.1-0.1,0.1-0.1c0.2,1.7-0.4,3.5-0.4,5.2c0,1.8,0.8,3.8,2.5,4.1
				c1.8,0.3,3.2-1.5,4.3-3c3.1-4.4,7.4-8.1,12.2-10.5c3.5-1.7,7.2-2.8,11-3.6c-0.4,0.1-0.8,0.3-1.2,0.5
				c-13.3,5.1-24.5,16.7-28.3,30.6c-0.5,2.2-1,4.5-1.3,6.8c-0.4-2.5-0.8-5-1-7.6C75.8,86.9,76.5,81.2,77.5,75.6z"/>
			<path class="st12" d="M130.7,62.5c-4-1.1-8.2-1.9-12.4-2c2.8-0.2,5.7-0.1,8.4,0.6c11.1,3,21.8,7.8,28,17.4c0.5,0.7,1.1,1.6,2,1.5
				c1.1-0.1,1.4-1.5,1.4-2.6c0.1-1.6,0.2-3.2,0.2-4.8c1.3,6.3,2.4,12.6,1.9,19c-0.2,3.1-0.7,6.2-1.3,9.2c-0.4-4.5-1.6-8.9-3.2-13
				C150.9,77,142.5,66.4,130.7,62.5z"/>
			<path class="st12" d="M161.6,180.2c0.8-0.9,1.7-1.9,1.7-3.1c0-0.9-0.6-1.8-1.2-2.5c-1.3-1.7-2.6-3.4-4.5-4.2
				c-2-0.8-4.3-0.5-6.2-1.4c-0.4-0.2-0.8-0.4-0.9-0.8c-0.2-0.4-0.1-1,0-1.5c1-3.6,3.3-6.6,5.3-9.8c-0.1-0.2-0.2-0.3-0.3-0.5
				c-0.9,1.3-1.8,2.5-2.6,3.8c-0.9,1-1.6,3.3-3.2,2.5c-0.6-0.4-0.7-1.1-0.4-1.7c1.8-2.7,3.6-5.3,5.4-7.9c-3.8,3.2-8.1,5.9-12.7,7.9
				c-1.5,0.7-3.5,1.3-4.8,0.2c8.4-6,16.9-12.2,23.8-19.8c0.7-2,1.1-4.1,1.1-6.4c0-1.2,0-2.4,0-3.6c0.2-0.8,0.7-1.5,1-2.3
				c4.7-11.8,9.6-23.9,9.6-36.7c-0.4-8-1.2-15.9-4.2-23.4c-1.8-3.7-3.9-7.3-6.4-10.6c2.7,5.7,4.5,11.7,3.9,17.9
				c-0.1,0.6-0.2,1.3-0.7,1.6c-0.9,0.5-1.8-0.4-2.4-1.2c-0.8-1.1-1.5-2.3-2.3-3.4c0.2,0.9,0.4,1.9,0.7,2.8c1.3,5,1.7,10.2,1.4,15.3
				c-0.8,12.6-5.2,24.6-8.6,36.7c-1.8,5.9-3.4,12.2-6.6,17.5c3.9-3.8,7.6-7.9,11.3-11.9c0.2-0.2,0.3-0.6,0.7-0.5
				c0.2,0,0.3,0.3,0.2,0.5c-0.2,0.5-0.5,1-0.7,1.4c-4,6.9-10.1,12.3-16.2,17.3c-5.4,4.1-11.2,8.2-17.9,9.3c-3.1,0.8-6.3,1-9.5,0.8
				c-0.6,0.1-2.7-0.4-4.7-1c-3.6-1-7-2.6-10.1-4.7c-3.3-1.9-6.5-4.3-9.3-6.8c-4.5-4.1-9.3-8-12.9-13.1c-0.4-0.6-1.8-3.1-0.7-2.7
				c1.4,1.2,2.6,2.6,3.9,3.9c2.6,2.5,5.4,5.1,8.2,7.7c-2.5-3.7-4.4-7.7-5.6-11.8C79.9,121,75.6,108,73.8,94.6
				c-0.6-5.2,0-10.5,0.9-15.7c0.1-0.8,0.7-4,1.5-6.4c-2.1,3-3.6,6.5-5.5,9.7c-0.1,0.2-0.2,0.4-0.5,0.5c-0.3,0.1-0.6-0.1-0.8-0.4
				c-0.7-0.8-0.7-2-0.7-3.1c0-5.5,1.3-10.8,3.1-16C64.2,77,63.1,94,66.2,109.1c1.3,6.1,3.7,11.9,6,17.7c0.6,1.7,1.2,3.4,1.8,5.1
				c0.7,0,0.9,1.2,0.8,2c-1.7,9.3,4.7,17.3,10.8,23.5c0.5,0.5,0.9,1,1.3,1.5c0.8,1.1-0.7,2.6-1.7,1.7c-1.2-1.3-2.6-2.7-3.9-4.2
				c-0.3,0.3-0.6,0.7-0.7,1c-1,1.8-1.6,3.9-1.8,5.9c-0.1,0.5-0.2,1-0.5,1.4c-0.4,0.7-1.4,0.8-2.2,1.1c-1.2,0.3-2.5,0.7-3.6,1.1
				c1.9,0.5,3.9,0.1,5.5-1c0.8-0.6,1.5-1.3,2.5-1.6c2-0.5,3.6,1.7,4.8,3.4c4.1,6.2,9.9,11.1,16.4,14.7c6.4,3.7,13.4,6.2,20.5,8.5
				c-12.4,3.8-25.7,4.4-38.5,2c10.2,5.1,21.7,8.8,32.8,9.5c11.7,0.4,23.3-2.5,34-7.1c4.7-2.2,9.1-5,13.3-8c-3.2,0.4-6.4,0.6-9.6,0.6
				C156.7,185.4,159.2,182.8,161.6,180.2z M129.2,186.5c-15.3-1.5-29.8-9-38.7-21.7c-0.3-0.3,0.1-0.8,0.4-0.3
				c3.3,3,6.9,5.8,10.4,8.5c0.2,0.2,0.5,0.4,0.7,0.5c5.3,2.3,11.1,3.2,16.8,2.9c5.8-0.4,11.6-2.2,16.8-4.7c1.8-0.9,3.6-1.7,5.5-2.5
				c0.4-0.2,0.8,0,1,0.3c0.2,0.4,0.1,0.9-0.3,1.1c-0.4,0.2-0.7,0.5-1.1,0.7c-4.1,6.4-11.8,10.5-19.4,10.5c-0.9,0-1.9-0.1-2.8-0.1
				c8.2,2.5,17,3.1,25.4,2c4.5-1.1,8.8-2.6,13-4.5c0.3-0.1,0.6,0.3,0.3,0.5C149.1,185.5,139,187.9,129.2,186.5z"/>
		</g>
	</g>
</g>
</svg>
