<?xml version="1.0" encoding="utf-8"?>
<!-- Generator: Adobe Illustrator 26.0.3, SVG Export Plug-In . SVG Version: 6.00 Build 0)  -->
<svg version="1.1" id="Layer_1" xmlns="http://www.w3.org/2000/svg" xmlns:xlink="http://www.w3.org/1999/xlink" x="0px" y="0px"
	 viewBox="0 0 1080 1080" style="enable-background:new 0 0 1080 1080;" xml:space="preserve">
<style type="text/css">
	.st0{fill:#EDA84D;}
	.st1{fill:#4A3D99;}
	.st2{fill:#FF8EB1;}
	.st3{fill:#282F39;}
	.st4{opacity:0.25;}
	.st5{fill:#FA92AE;}
	.st6{opacity:0.5;fill:#FF8EB1;}
	.st7{fill:#89405B;}
	.st8{fill:#E2477F;}
	.st9{fill:#D4F0FE;}
	.st10{fill:#EEFFFF;}
	.st11{fill:#A6DAE8;}
	.st12{fill:#73A09F;}
	.st13{fill:#372E68;}
	.st14{fill:#5949B2;}
	.st15{fill:#3F307D;}
	.st16{fill:#FFD400;}
	.st17{fill:#9B3D00;}
	.st18{fill:#01A2A4;}
	.st19{fill:#0A8989;}
	.st20{opacity:0.2;}
	.st21{opacity:0.21;}
	.st22{fill:#FFFFFF;}
	.st23{font-family:'Mohave-Bold';}
	.st24{font-size:60.7169px;}
	.st25{font-size:46.085px;}
	.st26{font-size:55.7601px;}
	.st27{fill:#FBFFFE;}
	.st28{fill:#C4EAEB;}
	.st29{opacity:0.27;}
	.st30{fill:#115654;}
	.st31{fill:#FFB300;}
	.st32{fill:#0D659B;}
	.st33{fill:#0265B0;}
	.st34{fill:#2F8DBC;}
	.st35{fill:#13587A;}
	.st36{opacity:0.24;}
	.st37{fill:#B7D8E2;}
</style>
<g>
	<g>
		<path class="st0" d="M673.39,666.13H399.86v-287.6c0-35.59,28.85-64.45,64.45-64.45h144.64c35.59,0,64.45,28.85,64.45,64.45
			V666.13z"/>
		<path class="st1" d="M433.64,345.28c2.49,32.62,10.65,64.42,18.91,95.97c3.64,13.92,6.6,28.17,11.46,41.71
			c4.44,12.39,4.15,23.75,19.35,26.07c6.99,1.07,13.98,2.14,20.97,3.21c10.82,1.65,21.63,3.31,32.48,4.77
			c8.85,1.19,17.91,2.25,26.66,0.48c7.61-1.54,14.65-5.16,21.28-9.2c7.33-4.47,14.32-9.5,20.88-15.05
			c4.41-3.73,8.68-7.76,11.65-12.7c10.53-17.51,4.89-42.32-0.05-60.59c-6.3-23.27-12.6-46.54-18.9-69.81
			c-4.97-18.37-13.18-75.54-41.11-73.41c-0.24-7.91-9.35-12.12-17.09-13.74c-36.03-7.53-89.66-0.81-102.94,39.19
			C432.6,315.96,432.53,330.81,433.64,345.28z"/>
		<path class="st2" d="M524.93,447.02c0,0-30.62-11.57-66.28,31.72c-35.66,43.3-58.79,107.96-58.79,107.96l31.84,16.53l61.32-78.15
			l147.24,20.06c0,0-3.1-118.75-89.46-100.53"/>
		<path class="st3" d="M623.4,599.33l-29.04-116.15c0-12.07-1.01-24.07-3.05-35.97c-1.3-0.55-2.65-1.04-4.03-1.5
			c2.01,11.09,3.13,22.25,3.35,33.48c-12.69,2.12-69.1,10.53-97.47-2.43c0.89-9.29,2.15-18.53,3.8-27.72
			c-1.32,0.49-2.67,1.04-4.05,1.67c-1.67,9.68-2.91,19.4-3.75,29.18c-5.11,8.09-16.36,26.94-16.45,36.15
			c-0.11,11.92,12.71,26.72,12.71,26.72l-9.79,42.64L623.4,599.33z"/>
		<polygon class="st2" points="517.33,421.6 526.86,465.93 560.33,458.53 546.67,400.54 		"/>
		<g class="st4">
			<path class="st2" d="M553.58,429.87l-6.91-29.34l-29.34,21.06l3.34,15.53c7.58-0.53,15.11-1.75,22.45-3.7
				C546.68,432.48,550.21,431.35,553.58,429.87z"/>
		</g>
		<path class="st5" d="M520.53,427.1L520.53,427.1c-32.4,4.04-61.94-18.94-65.98-51.34l-4.6-36.89c-3.62-28.97,16.94-55.38,45.91-59
			l12.42-1.55c28.97-3.62,55.38,16.94,59,45.91l4.6,36.89C575.92,393.52,552.93,423.06,520.53,427.1z"/>
		<polygon class="st6" points="490.03,335.93 484.9,378.41 504.01,374.99 		"/>
		<path class="st7" d="M500.65,385.56c0.03,0.07,0.04,0.14,0.07,0.21c2.3,5.72,9.3,9.73,15.01,7.43c5.72-2.3,7.99-10.04,5.69-15.75
			c-0.03-0.07-0.06-0.13-0.09-0.2L500.65,385.56z"/>
		<path class="st8" d="M512.76,385.79c-3.02,1.21-5.17,3.64-6.15,6.5c2.83,1.57,6.15,2.1,9.12,0.9c2.98-1.2,5.01-3.87,5.96-6.97
			C519.01,384.84,515.78,384.58,512.76,385.79z"/>
		<path class="st7" d="M476.5,330.73c1.83,3.37-1.46,8.69-7.35,11.9c-5.89,3.21-12.15,3.08-13.98-0.29
			c-1.83-3.37,1.46-8.69,7.35-11.9C468.4,327.24,474.66,327.36,476.5,330.73z"/>
		<path class="st7" d="M534.19,328.56c-0.61,3.78-6.48,5.98-13.1,4.9c-6.62-1.07-11.49-5.01-10.88-8.8c0.61-3.78,6.48-5.98,13.1-4.9
			C529.94,320.84,534.81,324.78,534.19,328.56z"/>
		<g>
			<g>
				<path class="st7" d="M473.79,370.04c0.87-0.17,0.93-3.65,0.37-7.82c-0.56-4.16-1.53-7.51-2.41-7.44
					c-0.88,0.06-1.33,3.6-0.76,7.87C471.55,366.92,472.93,370.21,473.79,370.04z"/>
			</g>
			<g>
				<path class="st7" d="M520.02,362.97c0.87-0.17,0.93-3.65,0.37-7.82c-0.56-4.16-1.53-7.51-2.41-7.44
					c-0.88,0.06-1.34,3.6-0.76,7.87C517.78,359.84,519.15,363.14,520.02,362.97z"/>
			</g>
		</g>
		<path class="st1" d="M567.68,351.05c0,0-40.78-8.13-27.23-73.27C560.73,286.63,578.34,314.94,567.68,351.05z"/>
		<path class="st1" d="M463.48,320.65c11.56-1.79,23.11-3.91,34.43-6.89c19.18-5.05,40.64-11.03,54.29-26.19
			c-11.78-6.16-88.25-42.74-108.75,33.68C450.12,321.58,456.79,321.68,463.48,320.65z"/>
		
			<ellipse transform="matrix(0.9955 -0.0949 0.0949 0.9955 -30.9688 56.0872)" class="st9" cx="574.2" cy="353.64" rx="27.48" ry="31.84"/>
		<path class="st10" d="M542.84,303.29c10.13,11.24,16.19,26.05,16.92,41.16c6.79-1.97,13.36-4.83,19.79-7.97
			c-0.51-15.84-5.16-31.54-13.42-45.07c-2.33-3.82-4.98-7.5-8.29-10.52c-7.61-6.93-18.06-9.75-28.22-11.41
			c-17.07-2.8-35.02-3.23-51.96,0.64c-16.51,3.77-36.28,13.31-40.72,31.26c5.5-4.2,10.3-8.72,16.61-11.67
			c6.52-3.05,13.51-4.99,20.56-6.35c9.18-1.75,18.61-2.56,27.88-1.4C517.55,283.92,532.33,291.63,542.84,303.29z"/>
		<g>
			
				<ellipse transform="matrix(0.9955 -0.0949 0.0949 0.9955 -30.8916 56.751)" class="st10" cx="581.24" cy="353.17" rx="27.48" ry="31.84"/>
			<path class="st11" d="M598.09,351.57c1.03,10.78-5.68,20.23-14.98,21.12c-9.3,0.89-17.68-7.13-18.71-17.91
				c-1.03-10.78,5.68-20.23,14.98-21.12C588.68,332.77,597.06,340.79,598.09,351.57z"/>
		</g>
	</g>
	<g>
		<path class="st12" d="M614.42,923.7c-9.86-19.1-29.87-32.77-53.46-34.91V752.71h-12.94V888.8c-23.57,2.14-43.58,15.8-53.44,34.88
			c-3.33,2.24-5.56,6.23-5.56,10.8c0,7.02,5.24,12.71,11.71,12.71c6.47,0,11.71-5.69,11.71-12.71c0-3.37-1.22-6.43-3.2-8.71
			c8.31-11.94,22.39-20.36,38.77-22.14v38.81c-3.16,2.28-5.24,6.17-5.24,10.6c0,7.02,5.24,12.71,11.71,12.71
			c6.47,0,11.71-5.69,11.71-12.71c0-4.43-2.08-8.32-5.24-10.6v-38.81c16.37,1.78,30.45,10.19,38.76,22.12
			c-1.98,2.28-3.21,5.34-3.21,8.73c0,7.02,5.24,12.71,11.71,12.71c6.47,0,11.71-5.69,11.71-12.71
			C619.93,929.93,617.72,925.95,614.42,923.7z"/>
		<path class="st0" d="M428.24,623.3v92.31c0,34.31,27.81,62.13,62.13,62.13H598.7c41.25,0,74.7-33.44,74.7-74.7V623.3H428.24z"/>
		<path class="st2" d="M401.67,902.28l-0.6,16.12c0,0-56.9-0.68-67.22,20.72c0,0,47.82,8.87,94.23,3.53
			c-0.64-27.37,0.16-42.89,0.16-42.89"/>
		<path class="st2" d="M288.4,860.21l-17.82,23.72c0,0-45.45-34.23-66.44-23.09c0,0,33.29,35.45,73.86,58.63
			c15.68-22.44,25.52-34.47,25.52-34.47"/>
		<path class="st13" d="M456.3,612.08l-53.22,20.63c-7.49,2.9-13.62,8.52-17.16,15.73L279.93,864.23
			c4.98,11.16,16.22,18.86,28.79,20.53l129.82-195.8l147.08-30.48l10.88-60.88L456.3,612.08z"/>
		<path class="st14" d="M592.49,620.07c-28.57,6.68-57.17,13.29-85.92,18.91c-34.63,6.77-74.03,12.76-96.83,42.55
			c-12,15.68-22.23,33.36-32.57,50.15c-12.21,19.82-23.74,40.05-35.79,59.98c-17.16,28.39-34.38,56.75-51.59,85.1
			c1.41,1.12,2.92,2.14,4.5,3.05c37.38-62.24,74.38-124.77,113.6-185.83c11.36-17.68,25.04-28.38,44.59-35.96
			c17.79-6.91,36.91-10.08,55.57-13.69c27.91-5.4,55.66-11.81,83.38-18.3L592.49,620.07z"/>
		<path class="st13" d="M418.18,924.19c-5.29-4.24-10.79-8.33-16.91-11.22l-0.2,5.42c0,0-56.9-0.68-67.22,20.72
			c0,0,47.82,8.87,94.23,3.53c-0.23-9.77-0.27-18-0.24-24.59C424.22,919.38,420.88,921.43,418.18,924.19z"/>
		<path class="st13" d="M280.94,898.73c-1.75-6.55-3.76-13.1-6.99-19.05l-3.37,4.25c0,0-45.45-34.23-66.44-23.09
			c0,0,33.29,35.45,73.86,58.63c5.6-8.01,10.44-14.67,14.36-19.95C288.66,898.43,284.75,898.11,280.94,898.73z"/>
		<path class="st15" d="M622.34,617.62l-67.85,8.64l-121.8,36.44c-14.18,4.24-24.1,17.02-24.69,31.81l-8.15,208.35
			c8.48,4.64,23.35,6.23,32.43,1.45c5.6-28.58,32.45-186.6,32.45-186.6s128.64,8.25,155.65-15.4
			C647.4,678.66,622.34,617.62,622.34,617.62z"/>
		<path class="st14" d="M599.39,678.83c10.61-3.08,22.44-7.31,33.5-13.02c-0.04-1.84-0.15-3.67-0.29-5.5
			c-20.16,10.63-44.71,16.37-62.42,19.79c-20.8,4.03-41.96,6-63.01,8.28c-16.51,1.79-36.06,1.72-51.22,9.15
			c-10.14,4.97-14.12,15.86-16.13,26.22c-4.38,22.66-6.55,45.95-10.03,68.78c-5.79,38.07-12.15,76.06-18.96,113.97
			c1.8,0.32,3.64,0.53,5.5,0.63c6.74-37.63,13.03-75.34,18.81-113.13c3.5-22.89,6.19-45.95,10.03-68.78
			c3.03-18.05,13.39-24.93,30.81-27.5C517.2,691.64,559.15,690.51,599.39,678.83z"/>
	</g>
	<path class="st0" d="M227.33,232.67h-31.91c-22.02,0-39.87-17.85-39.87-39.87l0,0c0-22.02,17.85-39.87,39.87-39.87h31.91
		c22.02,0,39.87,17.85,39.87,39.87l0,0C267.2,214.82,249.35,232.67,227.33,232.67z"/>
	<path class="st1" d="M888.38,267.61h-69.32c-12.16,0-22.02-9.86-22.02-22.02v-45.1c0-12.16,9.86-22.02,22.02-22.02h69.32
		c12.16,0,22.02,9.86,22.02,22.02v45.1C910.4,257.75,900.54,267.61,888.38,267.61z"/>
	<g>
		<path class="st16" d="M1072.99,295.61c0-25.9-21-46.9-46.9-46.9c-25.9,0-46.9,21-46.9,46.9c0,11.27,3.98,21.61,10.6,29.7l0,0
			c0,0,0.01,0.01,0.03,0.04c0.08,0.1,0.16,0.19,0.24,0.29c1.77,2.13,11.65,14.53,15.83,30.07c0.77,2.85,3.39,4.8,6.35,4.8h27.72
			c2.95,0,5.58-1.95,6.35-4.8c4.6-17.1,16.11-30.4,16.11-30.4l-0.02,0C1069.01,317.22,1072.99,306.88,1072.99,295.61z"/>
		<path class="st17" d="M1038.29,382.48c0-5.38-6.56-9.76-11.98-9.88v0c-0.07,0-0.14-0.01-0.22-0.01c0,0-0.01,0-0.01,0
			c0,0-0.01,0-0.01,0c-0.07,0-0.14,0.01-0.22,0.01v0c-5.42,0.13-11.98,4.5-11.98,9.88c0,5.38,6.56,10.51,11.98,10.66v0
			c0.07,0,0.14,0.01,0.22,0.01c0,0,0.01,0,0.01,0c0,0,0.01,0,0.01,0c0.07,0,0.14-0.01,0.22-0.01v0
			C1031.74,392.99,1038.29,387.87,1038.29,382.48z"/>
		<path class="st17" d="M1004.67,316.96c4.02,2.19,8.93,2.24,13.56,1.96c0.33,4.36,0.11,8.83,0.15,12.46
			c0.13,10.92-0.06,21.84-0.51,32.75h3.11c0.61-13.77,0.86-27.6,0.34-41.36c-0.05-1.28-0.13-2.64-0.28-4.05
			c0.35-0.03,0.71-0.05,1.05-0.08c1.33-0.1,2.67-0.17,4-0.24c1.32,0.07,2.63,0.14,3.95,0.24c0.35,0.03,0.7,0.05,1.05,0.08
			c-0.14,1.41-0.23,2.77-0.28,4.05c-0.52,13.76-0.26,27.59,0.34,41.36h3.11c-0.45-10.91-0.64-21.83-0.51-32.75
			c0.04-3.63-0.18-8.1,0.15-12.46c4.63,0.28,9.54,0.23,13.56-1.96c3.85-2.1,7.74-6.45,5.98-11.22c-1.31-3.54-4.65-6.51-8.65-6.28
			c-8.63,0.49-11.99,8.28-13.27,15.97c-5.48-0.89-10.89,0.23-10.89,0.23c-1.26-7.77-4.6-15.7-13.31-16.2
			c-4-0.23-7.34,2.74-8.65,6.28C996.93,310.51,1000.82,314.86,1004.67,316.96z M1038.53,305.76c3.01-3.2,10.46-5.2,11.95,0.81
			c1.57,6.33-6.38,9.06-11.29,9.26c-1.64,0.07-3.27,0.04-4.9-0.03C1034.88,311.95,1036.08,308.36,1038.53,305.76z M1001.69,306.57
			c1.49-6,8.94-4,11.95-0.81c2.45,2.6,3.66,6.19,4.24,10.04c-1.63,0.07-3.27,0.09-4.9,0.03
			C1008.07,315.63,1000.12,312.9,1001.69,306.57z"/>
		<path class="st18" d="M1043.42,368.27h-34.66c-2.38,0-4.31-1.93-4.31-4.32l0,0c0-2.38,1.93-4.31,4.31-4.31h34.66
			c2.38,0,4.31,1.93,4.31,4.31l0,0C1047.73,366.34,1045.8,368.27,1043.42,368.27z"/>
		<path class="st19" d="M1043.42,376.45h-34.66c-2.38,0-4.31-1.93-4.31-4.31l0,0c0-2.38,1.93-4.32,4.31-4.32h34.66
			c2.38,0,4.31,1.93,4.31,4.32l0,0C1047.73,374.52,1045.8,376.45,1043.42,376.45z"/>
		<path class="st18" d="M1042.64,384.63h-33.1c-2.38,0-4.31-1.93-4.31-4.32l0,0c0-2.38,1.93-4.31,4.31-4.31h33.1
			c2.38,0,4.32,1.93,4.32,4.31l0,0C1046.95,382.7,1045.02,384.63,1042.64,384.63z"/>
		<g class="st20">
			<path class="st16" d="M1041.06,360.42c1.9-7.02-2.45-14.29-5.88-20.26c-7.43-12.92-18.73-23.33-25.82-36.29
				c-6.42-11.73-9.01-25.44-2.35-37.75c3.49-6.45,8.41-12.74,14.5-17.19c-23.75,2.31-42.32,22.32-42.32,46.68
				c0,11.27,3.98,21.61,10.6,29.7l0,0c0,0,0.01,0.01,0.03,0.04c0.08,0.1,0.16,0.19,0.24,0.29c1.77,2.13,11.65,14.53,15.83,30.07
				c0.77,2.85,3.39,4.81,6.35,4.81h27.72C1040.33,360.51,1040.7,360.48,1041.06,360.42z"/>
		</g>
		<g class="st21">
			<path class="st22" d="M1063.76,286.01c-2.97-9.26-9.47-19.4-18.82-23.01c-8.59-3.32-18.12-3.31-23.32,5.57
				c-3.73,6.38-3.87,14.3-2.41,21.54c1.2,5.93,3.39,11.67,6.46,16.88c4.51,7.65,11.99,14.65,20.87,14.46
				c7.63-0.16,14.43-5.91,17.29-13C1066.69,301.37,1066.1,293.28,1063.76,286.01z"/>
		</g>
		<g class="st21">
			<path class="st22" d="M1048.32,272.69c-3.17-2.82-9.29-2.61-10.1,2.44c-0.67,4.17,0.92,8.9,3.47,12.17
				c1.82,2.34,4.73,4.3,7.61,3.58c2.53-0.63,4.21-3.24,4.45-5.84c0.24-2.6-0.7-5.17-1.9-7.49
				C1050.92,275.76,1049.82,274.03,1048.32,272.69z"/>
		</g>
	</g>
	<text transform="matrix(1 0 0 1 175.3429 209.514)"><tspan x="0" y="0" class="st1 st23 st24">&lt;</tspan><tspan x="36.19" y="0" class="st1 st23 st25">/</tspan><tspan x="51.99" y="0" class="st1 st23 st24">&gt;</tspan></text>
	<text transform="matrix(1 0 0 1 819.9005 239.2943)" class="st0 st23 st26">{  }</text>
	<g>
		<circle class="st1" cx="69.51" cy="312.37" r="62.5"/>
		<circle class="st27" cx="69.51" cy="312.37" r="55.72"/>
		<g>
			<path class="st28" d="M70.55,272.11h-2.07c-0.27,0-0.49-0.22-0.49-0.49v-8.61c0-0.27,0.22-0.49,0.49-0.49h2.07
				c0.27,0,0.49,0.22,0.49,0.49v8.61C71.04,271.89,70.82,272.11,70.55,272.11z"/>
			<path class="st28" d="M109.77,313.41v-2.07c0-0.27,0.22-0.49,0.49-0.49h8.61c0.27,0,0.49,0.22,0.49,0.49v2.07
				c0,0.27-0.22,0.49-0.49,0.49h-8.61C109.99,313.9,109.77,313.68,109.77,313.41z"/>
			<path class="st28" d="M68.48,352.63h2.07c0.27,0,0.49,0.22,0.49,0.49v8.61c0,0.27-0.22,0.49-0.49,0.49h-2.07
				c-0.27,0-0.49-0.22-0.49-0.49v-8.61C67.99,352.85,68.2,352.63,68.48,352.63z"/>
			<path class="st28" d="M29.25,311.33v2.07c0,0.27-0.22,0.49-0.49,0.49h-8.61c-0.27,0-0.49-0.22-0.49-0.49v-2.07
				c0-0.27,0.22-0.49,0.49-0.49h8.61C29.03,310.84,29.25,311.06,29.25,311.33z"/>
		</g>
		<g>
			<path class="st0" d="M98.71,284.63l-1.47-1.47c-0.19-0.19-0.19-0.5,0-0.69l6.09-6.09c0.19-0.19,0.5-0.19,0.69,0l1.47,1.47
				c0.19,0.19,0.19,0.5,0,0.69l-6.09,6.09C99.22,284.82,98.91,284.82,98.71,284.63z"/>
			<path class="st0" d="M97.25,341.57l1.47-1.47c0.19-0.19,0.5-0.19,0.69,0l6.09,6.09c0.19,0.19,0.19,0.5,0,0.69l-1.47,1.47
				c-0.19,0.19-0.5,0.19-0.69,0l-6.09-6.09C97.06,342.07,97.06,341.76,97.25,341.57z"/>
			<path class="st0" d="M40.31,340.11l1.47,1.47c0.19,0.19,0.19,0.5,0,0.69l-6.09,6.09c-0.19,0.19-0.5,0.19-0.69,0l-1.47-1.47
				c-0.19-0.19-0.19-0.5,0-0.69l6.09-6.09C39.81,339.91,40.12,339.91,40.31,340.11z"/>
			<path class="st0" d="M41.78,283.17l-1.47,1.47c-0.19,0.19-0.5,0.19-0.69,0l-6.09-6.09c-0.19-0.19-0.19-0.5,0-0.69l1.47-1.47
				c0.19-0.19,0.5-0.19,0.69,0l6.09,6.09C41.97,282.67,41.97,282.98,41.78,283.17z"/>
		</g>
		<g>
			<path class="st0" d="M71.31,315.31h-3.59c-0.47,0-0.85-0.38-0.85-0.85v-31.69c0-0.47,0.38-0.85,0.85-0.85h3.59
				c0.47,0,0.85,0.38,0.85,0.85v31.69C72.15,314.93,71.77,315.31,71.31,315.31z"/>
			<path class="st28" d="M66.37,313.26l1.46-3.28c0.19-0.43,0.69-0.62,1.12-0.43l28.32,12.61c0.43,0.19,0.62,0.69,0.43,1.12
				l-1.46,3.28c-0.19,0.43-0.69,0.62-1.12,0.43L66.8,314.38C66.37,314.19,66.18,313.69,66.37,313.26z"/>
			<path class="st1" d="M73.43,312.86c0-2.17-1.76-3.92-3.92-3.92c-2.17,0-3.92,1.76-3.92,3.92c0,2.17,1.76,3.92,3.92,3.92
				C71.68,316.78,73.43,315.03,73.43,312.86z"/>
			<path class="st27" d="M71.84,312.86c0-1.29-1.04-2.33-2.33-2.33c-1.29,0-2.33,1.04-2.33,2.33s1.04,2.33,2.33,2.33
				C70.8,315.19,71.84,314.15,71.84,312.86z"/>
		</g>
	</g>
	<g>
		<rect x="224.95" y="623.87" class="st22" width="17.65" height="344.09"/>
		<rect x="826.96" y="623.87" class="st22" width="17.65" height="344.09"/>
		<rect x="90.05" y="612.67" class="st22" width="896.84" height="18.29"/>
	</g>
	<g>
		<g>
			<path class="st10" d="M373.57,368.65h-1.85v-5.55h1.85V368.65z M373.57,357.56h-1.85v-5.55h1.85V357.56z M373.57,346.46h-1.85
				v-5.55h1.85V346.46z M373.57,335.37h-1.85v-5.55h1.85V335.37z M373.57,324.28h-1.85v-5.55h1.85V324.28z M373.57,313.19h-1.85
				v-5.55h1.85V313.19z M373.57,302.1h-1.85v-5.55h1.85V302.1z M373.57,291h-1.85v-5.55h1.85V291z M373.57,279.91h-1.85v-5.55h1.85
				V279.91z M373.57,268.82h-1.85v-5.55h1.85V268.82z M373.57,257.73h-1.85v-5.55h1.85V257.73z M373.57,246.64h-1.85v-5.55h1.85
				V246.64z M373.57,235.54h-1.85V230h1.85V235.54z M373.57,224.45h-1.85v-5.55h1.85V224.45z M371.72,213.38
				c-0.04-1.78-0.31-3.53-0.81-5.22l1.77-0.52c0.54,1.84,0.84,3.76,0.88,5.7L371.72,213.38z M368.77,203.33
				c-0.93-1.51-2.05-2.89-3.33-4.1l1.27-1.34c1.4,1.33,2.63,2.84,3.64,4.48L368.77,203.33z M361.15,196.12
				c-1.56-0.84-3.22-1.47-4.94-1.87l0.42-1.8c1.88,0.44,3.7,1.13,5.4,2.05L361.15,196.12z M350.92,193.72h-5.55v-1.85h5.55V193.72z
				 M339.83,193.72h-5.55v-1.85h5.55V193.72z M328.73,193.72h-5.55v-1.85h5.55V193.72z M317.64,193.72h-5.55v-1.85h5.55V193.72z
				 M306.55,193.72H301v-1.85h5.55V193.72z M295.46,193.72h-5.55v-1.85h5.55V193.72z M284.37,193.72h-5.55v-1.85h5.55V193.72z"/>
		</g>
		<g>
			<path class="st10" d="M682.72,362.56h-1.85v-5.55h1.85V362.56z M682.72,351.47h-1.85v-5.55h1.85V351.47z M682.72,340.38h-1.85
				v-5.55h1.85V340.38z M682.72,329.29h-1.85v-5.55h1.85V329.29z M682.72,318.2h-1.85v-5.55h1.85V318.2z M682.72,307.1h-1.85v-5.55
				h1.85V307.1z M682.72,296.01h-1.85v-5.55h1.85V296.01z M682.72,284.92h-1.85v-5.55h1.85V284.92z M682.72,273.83h-1.85v-5.55h1.85
				V273.83z M682.72,262.74h-1.85v-5.55h1.85V262.74z M682.72,251.64h-1.85v-0.24c0-1.84,0.17-3.67,0.51-5.45l1.82,0.34
				c-0.31,1.67-0.47,3.39-0.47,5.11V251.64z M684.7,241.16l-1.71-0.69c0.71-1.77,1.6-3.47,2.64-5.07l1.55,1.01
				C686.2,237.91,685.36,239.51,684.7,241.16z M690.52,232.24l-1.32-1.29c1.34-1.37,2.81-2.61,4.37-3.68l1.05,1.52
				C693.16,229.79,691.78,230.96,690.52,232.24z M699.31,226.19l-0.73-1.7c1.75-0.76,3.59-1.34,5.45-1.74l0.39,1.81
				C702.67,224.94,700.95,225.49,699.31,226.19z M709.73,223.97l-0.03-1.85l5.56,0v1.85L709.73,223.97z M781.82,223.96h-5.55v-1.85
				h5.55V223.96z M770.72,223.96h-5.55v-1.85h5.55V223.96z M759.63,223.96h-5.55v-1.85h5.55V223.96z M748.54,223.96h-5.55v-1.85
				h5.55V223.96z M737.45,223.96h-5.55v-1.85h5.55V223.96z M726.36,223.96h-5.55v-1.85h5.55V223.96z"/>
		</g>
		<g>
			<path class="st10" d="M1004.18,469.64h-5.55v-1.85h5.55V469.64z M993.09,469.64h-5.55v-1.85h5.55V469.64z M982,469.64h-5.55
				v-1.85H982V469.64z M970.91,469.64h-5.55v-1.85h5.55V469.64z M959.81,469.64h-5.55v-1.85h5.55V469.64z M948.72,469.64h-5.55
				v-1.85h5.55V469.64z M937.63,469.64h-5.55v-1.85h5.55V469.64z M926.54,469.64h-5.55v-1.85h5.55V469.64z M915.45,469.64h-5.55
				v-1.85h5.55V469.64z M904.35,469.64h-5.55v-1.85h5.55V469.64z M893.26,469.64h-5.55v-1.85h5.55V469.64z M882.17,469.64h-5.55
				v-1.85h5.55V469.64z M1009.89,469.11l-0.4-1.8c1.72-0.39,3.39-1,4.96-1.83l0.86,1.63
				C1013.6,468.01,1011.77,468.68,1009.89,469.11z M1020.01,463.76l-1.26-1.35c1.3-1.21,2.43-2.58,3.37-4.08l1.57,0.98
				C1022.66,460.94,1021.42,462.44,1020.01,463.76z M1026.07,454.05l-1.77-0.54c0.51-1.69,0.8-3.44,0.85-5.22l1.85,0.05
				C1026.94,450.29,1026.63,452.21,1026.07,454.05z M1027.01,442.78h-1.85v-5.55h1.85V442.78z M1027.01,431.69h-1.85v-5.55h1.85
				V431.69z M1027.01,420.6h-1.85v-5.55h1.85V420.6z M1027.01,409.51h-1.85v-1.58h1.85V409.51z"/>
		</g>
		<g>
			<path class="st10" d="M265.02,362.22h-1.85v-3.72h1.85V362.22z M265.02,352.95h-1.85v-5.55h1.85V352.95z M265.02,341.86h-1.85
				l0-5.54l1.85-0.02L265.02,341.86z M262.57,331.01c-0.38-1.74-0.95-3.45-1.68-5.07l1.69-0.76c0.78,1.74,1.39,3.57,1.8,5.44
				L262.57,331.01z M258.2,321.32c-1.05-1.44-2.25-2.78-3.58-3.97l1.24-1.37c1.41,1.28,2.7,2.71,3.83,4.25L258.2,321.32z
				 M250.32,314.18c-1.54-0.9-3.18-1.65-4.86-2.21l0.59-1.75c1.81,0.61,3.56,1.4,5.21,2.37L250.32,314.18z M240.24,310.81
				c-1-0.12-2.02-0.17-3.03-0.17h-2.4v-1.85h2.4c1.09,0,2.18,0.06,3.25,0.19L240.24,310.81z M229.26,310.64h-5.55v-1.85h5.55V310.64
				z M218.17,310.64h-5.55v-1.85h5.55V310.64z M207.08,310.64h-5.55v-1.85h5.55V310.64z M195.98,310.64h-5.55v-1.85h5.55V310.64z
				 M184.89,310.64h-5.55v-1.85h5.55V310.64z M173.8,310.64h-5.55v-1.85h5.55V310.64z M162.71,310.64h-5.55v-1.85h5.55V310.64z
				 M151.62,310.64h-5.55v-1.85h5.55V310.64z"/>
		</g>
	</g>
	<polygon class="st2" points="622.01,532.25 534.25,571.8 570.89,583.49 677.99,558.91 	"/>
	<g>
		<polygon class="st10" points="90.05,612.67 198.19,578.44 914.14,578.44 986.89,612.67 		"/>
		<g>
			<g>
				<path class="st18" d="M929.47,593.4h-10.24c-8.31,0-15.07-6.76-15.07-15.07v-5.34c0-8.31,6.76-15.07,15.07-15.07h10.24
					c8.31,0,15.07,6.76,15.07,15.07v5.34C944.54,586.64,937.78,593.4,929.47,593.4z M919.23,563.47c-5.25,0-9.52,4.27-9.52,9.51
					v5.34c0,5.25,4.27,9.51,9.52,9.51h10.24c5.25,0,9.52-4.27,9.52-9.51v-5.34c0-5.25-4.27-9.51-9.52-9.51H919.23z"/>
			</g>
			<path class="st19" d="M926.76,554.8c0-6.98-14.77-12.63-33-12.63c-18.22,0-33,5.66-33,12.63c0,0-6.71,31.11,17.28,47.85
				c0.56,0.39,1.24,0.59,1.93,0.59h7.11h13.37h7.11c0.68,0,1.36-0.2,1.93-0.59C933.47,585.91,926.76,554.8,926.76,554.8z"/>
			<g class="st29">
				<path class="st19" d="M909.26,602.75c0.29-3.93-0.92-7.78-4.62-11.27c-6.09-5.74-13.64-9.11-20.3-14.06
					c-9.05-6.72-16.98-18.62-16.66-30.35c-4.33,2.14-6.92,4.81-6.92,7.73c0,0-6.71,31.11,17.28,47.85c0.56,0.39,1.24,0.59,1.93,0.59
					h27.59C908.15,603.24,908.74,603.05,909.26,602.75z"/>
			</g>
			<path class="st30" d="M922.38,555.38c0,5.37-12.84,9.72-28.67,9.72c-15.84,0-28.67-4.35-28.67-9.72s12.84-9.71,28.67-9.71
				C909.54,545.67,922.38,550.01,922.38,555.38z"/>
			<path class="st31" d="M867.01,558.91c4.17,3.62,14.54,6.19,26.7,6.19s22.52-2.57,26.7-6.19c-4.17-3.62-14.54-6.19-26.7-6.19
				S871.18,555.29,867.01,558.91z"/>
		</g>
		<g>
			<polygon class="st32" points="164.08,446.22 147.47,455.55 146.11,456.3 170.34,456.3 170.34,446.22 			"/>
			<rect x="146.11" y="456.3" class="st33" width="45.86" height="151.9"/>
			<rect x="146.4" y="586.7" class="st0" width="45.28" height="7.82"/>
			<rect x="146.07" y="461.92" class="st0" width="45.91" height="6.8"/>
			<rect x="146.4" y="564.43" class="st34" width="45.28" height="14.74"/>
			<path class="st28" d="M179.67,487.38c0-5.87-4.76-10.63-10.63-10.63c-5.87,0-10.63,4.76-10.63,10.63
				c0,5.87,4.76,10.63,10.63,10.63C174.91,498.01,179.67,493.25,179.67,487.38z"/>
			<polygon class="st32" points="191.97,456.3 208.01,446.12 208.01,600.6 191.97,608.2 			"/>
			<polygon class="st35" points="204.18,446.22 187.97,456.3 191.97,456.3 207.85,446.22 			"/>
			<polygon class="st35" points="164.07,446.22 146.11,456.3 148.34,456.3 166.22,446.22 			"/>
			<polygon class="st22" points="166.22,446.22 148.34,456.3 189.65,456.3 206.16,446.22 			"/>
		</g>
		<g>
			<path class="st10" d="M626.68,379.8H818.3c1.03-0.06,2.11-0.08,3.3,0c2.85,0,5.57,0.51,8.12,1.4
				c19.7,5.73,21.55,25.98,21.55,25.98l-5.13,3.16v132.11c0,13.55-10.98,24.53-24.53,24.53H626.68c-13.55,0-24.53-10.98-24.53-24.53
				V404.33C602.15,390.78,613.13,379.8,626.68,379.8z"/>
			<g class="st29">
				<path class="st9" d="M699.7,566.97h-73.02c-13.55,0-24.53-10.98-24.53-24.53V404.33c0-7.12,3.05-13.51,7.89-17.99
					c16.22,10.3,32.06,21.19,47.44,32.7L699.7,566.97z"/>
			</g>
			<path class="st9" d="M625.18,566.97h213.09c7.33,0,13.27-5.94,13.27-13.27V399.56c0-7.33-5.94-13.27-13.27-13.27H625.18
				c-7.33,0-13.27,5.94-13.27,13.27V553.7C611.91,561.03,617.85,566.97,625.18,566.97z"/>
			<g class="st36">
				<path class="st9" d="M611.91,542.44v-38.31c7.61-5.58,16.25-9.82,25.08-13.26c29.42-11.45,61.22-14.95,92.1-21.51
					c22.48-4.78,45.71-11.87,61.68-28.4c13.97-14.46,20.66-34.58,22.61-54.67h13.62c13.55,0,24.53,10.98,24.53,24.53v131.62
					c0,13.55-10.98,24.53-24.53,24.53H636.44C622.89,566.97,611.91,555.99,611.91,542.44z"/>
			</g>
			<path class="st37" d="M728.99,605.25l-23.48-0.08c-4.35-0.01-7.75-3.77-7.33-8.11l10.09-103.88c0.35-3.61,3.39-6.36,7.01-6.36
				h13.71h5.92h13.71c3.63,0,6.66,2.75,7.01,6.36l10.09,103.88c0.42,4.33-2.98,8.09-7.33,8.11l-23.48,0.08v0.02l-2.96-0.01
				l-2.96,0.01V605.25z"/>
			<path class="st22" d="M720.33,511.7c0,5.9,4.78,10.68,10.68,10.68s10.68-4.78,10.68-10.68c0-5.9-4.78-10.68-10.68-10.68
				S720.33,505.8,720.33,511.7z"/>
		</g>
		<path class="st37" d="M564.37,601.01c4.18,0,6.77-4.45,4.82-8.15c-4.8-9.07-15.38-15.38-27.67-15.38
			c-12.44,0-23.13,6.46-27.85,15.71c-1.82,3.58,0.95,7.82,4.97,7.82H564.37z"/>
		<path class="st2" d="M522.82,575c9.37-6.66,21.62-7.43,32.38-4.11c4.53,1.4,9.03,3.68,12.36,7.27c2.74,2.96,5.89,9.65,2.17,13.03
			c-1.46,1.33-3.73,1.34-5.58,0.66c-1.85-0.67-3.43-1.91-5.13-2.92c-4.95-2.94-10.89-3.87-16.65-3.67
			c-5.76,0.2-11.42,1.47-17.06,2.66c-2.17,0.46-4.34,0.9-6.53,1.19c-0.74,0.1-1.6,0.13-2.1-0.41c-0.33-0.36-0.42-0.87-0.45-1.36
			C515.87,582.48,518.85,577.82,522.82,575z"/>
		<path class="st2" d="M449.61,584.06c0.01-0.19,0.04-0.37,0.04-0.56c0-9.92-12.4-17.96-27.7-17.96c-15.3,0-27.7,8.04-27.7,17.96
			c0,0.19,0.03,0.38,0.04,0.56H449.61z"/>
		<rect x="264.1" y="584.06" class="st11" width="206.63" height="10.46"/>
		<g>
			<path class="st10" d="M446.2,379.8H254.58c-1.03-0.06-2.11-0.08-3.3,0c-2.85,0-5.57,0.51-8.12,1.4
				c-19.7,5.73-21.55,25.98-21.55,25.98l5.14,3.16v132.11c0,13.55,10.98,24.53,24.53,24.53H446.2c13.55,0,24.53-10.98,24.53-24.53
				V404.33C470.73,390.78,459.75,379.8,446.2,379.8z"/>
			<g class="st29">
				<path class="st9" d="M373.18,566.97h73.02c13.55,0,24.53-10.98,24.53-24.53V404.33c0-7.12-3.05-13.51-7.89-17.99
					c-16.22,10.3-32.06,21.19-47.44,32.7L373.18,566.97z"/>
			</g>
			<path class="st9" d="M447.7,566.97H234.61c-7.33,0-13.27-5.94-13.27-13.27V399.56c0-7.33,5.94-13.27,13.27-13.27H447.7
				c7.33,0,13.27,5.94,13.27,13.27V553.7C460.97,561.03,455.03,566.97,447.7,566.97z"/>
			<g class="st36">
				<path class="st9" d="M460.97,542.44v-38.31c-7.61-5.58-16.25-9.82-25.08-13.26c-29.42-11.45-61.22-14.95-92.1-21.51
					c-22.48-4.78-45.71-11.87-61.68-28.4c-13.97-14.46-20.66-34.58-22.61-54.67h-13.62c-13.55,0-24.53,10.98-24.53,24.53v131.62
					c0,13.55,10.98,24.53,24.53,24.53h190.57C449.98,566.97,460.97,555.99,460.97,542.44z"/>
			</g>
			<path class="st37" d="M334.64,605.25l23.48-0.08c4.35-0.01,7.75-3.77,7.33-8.11l-10.09-103.88c-0.35-3.61-3.39-6.36-7.01-6.36
				h-13.71h-5.92h-13.71c-3.63,0-6.66,2.75-7.01,6.36L297.9,597.06c-0.42,4.33,2.98,8.09,7.33,8.11l23.48,0.08v0.02l2.96-0.01
				l2.96,0.01V605.25z"/>
			<path class="st22" d="M343.3,511.7c0,5.9-4.78,10.68-10.68,10.68c-5.9,0-10.68-4.78-10.68-10.68c0-5.9,4.78-10.68,10.68-10.68
				C338.52,501.02,343.3,505.8,343.3,511.7z"/>
		</g>
	</g>
</g>
</svg>
